# AST/ASF file generated using VICON BodyLanguage
# -----------------------------------------------
:version 1.10
:name VICON
:units
  mass 1.0
  length 0.45
  angle deg
:documentation
   .ast/.asf automatically generated from VICON data using
   VICON BodyBuilder and BodyLanguage model FoxedUp or BRILLIANT.MOD
:root
   order TX TY TZ RX RY RZ
   axis XYZ
   position 0 0 0  
   orientation 0 0 0 
:bonedata
  begin
     id 1 
     name lhipjoint
     direction 0.660183 -0.676772 0.325788 
     length 2.75133 
     axis 0 0 0  XYZ
  end
  begin
     id 2 
     name lfemur
     direction 0.34202 -0.939693 0  
     length 7.70317  
     axis 0 0 20  XYZ
    dof rx ry rz
    limits (-160.0 20.0)
           (-70.0 70.0)
           (-60.0 70.0)
  end
  begin
     id 3 
     name ltibia
     direction 0.342105 -0.939662 0   
     length 7.18701   
     axis 0 0 20   XYZ
    dof rx
    limits (-10.0 170.0)
  end
  begin
     id 4 
     name lfoot
     direction 0.14163 -0.389126 0.910232   
     length 2.41719   
     axis -90 7.62852e-016 20   XYZ
    dof rx rz
    limits (-45.0 90.0)
           (-70.0 20.0)
  end
  begin
     id 5 
     name ltoes
     direction 1.53533e-011 -4.21926e-011 1   
     length 1.18611   
     axis -90 7.62852e-016 20   XYZ
    dof rx
    limits (-90.0 20.0)
  end
  begin
     id 6 
     name rhipjoint
     direction -0.6658 -0.67229 0.323631   
     length 2.76968  
     axis 0 0 0  XYZ 
  end
  begin
     id 7 
     name rfemur
     direction -0.34202 -0.939693 0   
     length 7.92547   
     axis 0 0 -20   XYZ
    dof rx ry rz
    limits (-160.0 20.0)
           (-70.0 70.0)
           (-70.0 60.0)
  end
  begin
     id 8 
     name rtibia
     direction -0.342022 -0.939692 0   
     length 7.22641   
     axis 0 0 -20   XYZ
    dof rx
    limits (-10.0 170.0)
 end
 begin
     id 9 
     name rfoot
     direction -0.105675 -0.29034 0.951071   
     length 2.48149  
     axis -90 -7.62852e-016 -20   XYZ
    dof rx rz
    limits (-45.0 90.0)
           (-20.0 70.0)
  end
  begin
     id 10 
     name rtoes
     direction -1.5349e-011 -4.21859e-011 1   
     length 1.23343   
     axis -90 -7.62852e-016 -20   XYZ
    dof rx
    limits (-90.0 20.0)
  end
  begin
     id 11 
     name lowerback
     direction 0.0104173 0.993624 -0.112266   
     length 2.00527   
     axis 0 0 0   XYZ
    dof rx ry rz
    limits (-20.0 45.0)
           (-30.0 30.0)
           (-30.0 30.0)
  end
  begin
     id 12 
     name upperback
     direction 0.00733149 0.999856 -0.0152913   
     length 2.01385   
     axis 0 0 0   XYZ
    dof rx ry rz
    limits (-20.0 45.0)
           (-30.0 30.0)
           (-30.0 30.0)
  end
  begin
     id 13 
     name thorax
     direction 0.0026304 0.999318 0.036841   
     length 2.03734   
     axis 0 0 0   XYZ
    dof rx ry rz
    limits (-20.0 45.0)
           (-30.0 30.0)
           (-30.0 30.0)
  end
  begin
     id 14 
     name lowerneck
     direction 0.0293154 0.998757 0.0403082   
     length 1.65303   
     axis 0 0 0   XYZ
    dof rx ry rz
    limits (-20.0 45.0)
           (-30.0 30.0)
           (-30.0 30.0)
  end
  begin
     id 15 
     name upperneck
     direction -0.0376619 0.998184 -0.0470083   
     length 1.60926   
     axis 0 0 0   XYZ
    dof rx ry rz
    limits (-20.0 45.0)
           (-30.0 30.0)
           (-30.0 30.0)
  end
  begin
     id 16
     name head
     direction -0.0170133 0.999635 -0.0209778  
     length 1.73625  
     axis 0 0 0   XYZ
    dof rx ry rz
    limits (-20.0 45.0)
           (-30.0 30.0)
           (-30.0 30.0)
  end
  begin
     id 17 
     name lclavicle
     direction 0.919857 0.39181 -0.0186333  
     length 3.75313  
     axis 0 0 0   XYZ
    dof ry rz
    limits (-20.0 10.0)
           (0.0 20.0)
  end
  begin
     id 18 
     name lhumerus
     direction 1 -4.48988e-011 1.44029e-027   
     length 5.49313   
     axis 180 -30 -90   XYZ
    dof rx ry rz
    limits (-60.0 90.0)
           (-90.0 90.0)
           (-90.0 90.0)
  end
  begin
     id 19
     name lradius
     direction 1 -4.48924e-011 7.46281e-027   
     length 3.29037   
     axis 180 -30 -90   XYZ
    dof rx
    limits (-10.0 170.0)
  end
  begin
     id 20
     name lwrist
     direction 1 -4.48955e-011 2.19879e-026   
     length 1.64519   
     axis -1.34358e-014 90 90   XYZ
    dof ry
    limits (-180.0 0.0)
 end
  begin
     id 21 
     name lhand
     direction 1 -4.48978e-011 4.39747e-026   
     length 0.729656   
     axis -2.80598e-014 90 90   XYZ
    dof rx rz
    limits (-90.0 90.0)
           (-45.0 45.0)
  end
  begin
     id 22 
     name lfingers
     direction 1 -4.49071e-011 8.79411e-026   
     length 0.588268   
     axis -5.61193e-014 90 90   XYZ
    dof rx
    limits (0.0 90.0)
  end
  begin
     id 23
     name lthumb
     direction 0.707107 -6.34817e-011 0.707107   
     length 0.844638   
     axis -90 45 -9.86923e-015   XYZ
    dof rx rz
    limits (-45.0 45.0)
           (-45.0 45.0)
  end
  begin
     id 24 
     name rclavicle
     direction -0.919898 0.388279 0.0550233   
     length 3.7171  
     axis 0 0 0   XYZ 
    dof ry rz
    limits (-10.0 20.0)
           (-20.0 0.0)
  end
  begin
     id 25 
     name rhumerus
     direction -1 -4.48968e-011 9.98372e-028  
     length 5.23684   
     axis 180 30 90   XYZ
    dof rx ry rz
    limits (-90.0 60.0)
           (-90.0 90.0)
           (-90.0 90.0)
  end
  begin
     id 26 
     name rradius
     direction -1 -4.48956e-011 1.01023e-026   
     length 3.38251   
     axis 180 30 90   XYZ
    dof rx
    limits (-10.0 170.0)
  end
  begin
     id 27 
     name rwrist
     direction -1 -4.4892e-011 2.19886e-026   
     length 1.69126   
     axis -1.34358e-014 -90 -90   XYZ
    dof ry
    limits (-180.0 0.0)
  end
  begin
     id 28
     name rhand
     direction -1 -4.49024e-011 4.39727e-026   
     length 0.691454   
     axis -2.80598e-014 -90 -90   XYZ
    dof rx rz
    limits (-90.0 90.0)
           (-45.0 45.0)
  end
  begin
     id 29
     name rfingers
     direction -1 -4.49097e-011 8.79388e-026   
     length 0.557468   
     axis -5.61193e-014 -90 -90   XYZ
    dof rx
    limits (0.0 90.0)
  end
  begin
     id 30
     name rthumb
     direction -0.707107 -6.34938e-011 0.707107   
     length 0.800416   
     axis -90 -45 9.86923e-015   XYZ
    dof rx rz
    limits (-45.0 45.0)
           (-45.0 45.0)
  end
:hierarchy
  begin
    root lhipjoint rhipjoint lowerback
    lhipjoint lfemur
    lfemur ltibia
    ltibia lfoot
    lfoot ltoes
    rhipjoint rfemur
    rfemur rtibia
    rtibia rfoot
    rfoot rtoes
    lowerback upperback
    upperback thorax
    thorax lowerneck lclavicle rclavicle
    lowerneck upperneck
    upperneck head
    lclavicle lhumerus
    lhumerus lradius
    lradius lwrist
    lwrist lhand lthumb
    lhand lfingers
    rclavicle rhumerus
    rhumerus rradius
    rradius rwrist
    rwrist rhand rthumb
    rhand rfingers
  end

#!OML:ASF H:\BabyWalks\Project 1\Capture day 1\Session 1\baby.ASF
:FULLY-SPECIFIED
:DEGREES
1
root -13.3424 17.9788 -1.79974 146.393 -82.8833 -149.412
lowerback 13.8417 -1.60953 1.04369
upperback 4.09165 -2.12201 1.74684
thorax -3.41075 -1.14781 1.59219
lowerneck -1.79025 -8.42412 0.400756
upperneck -3.6104 -11.3707 -1.84052
head -0.951177 -5.70157 -0.577866
rclavicle 8.94531e-015 -2.21148e-015
rhumerus -28.2159 18.2566 -83.4433
rradius 51.2554
rwrist 14.4373
rhand 0.21437 -14.4663
rfingers 7.12502
rthumb 25.7957 -42.7374
lclavicle 8.94531e-015 -2.21148e-015
lhumerus -33.6888 -11.9775 83.453
lradius 54.8063
lwrist -6.2338
lhand 14.3012 11.5433
lfingers 7.12502
lthumb 39.1935 37.0076
rfemur 2.02188 5.81181 18.0189
rtibia 9.64986
rfoot -6.26128 -20.1669
rtoes -0.924404
lfemur 4.50936 -4.09282 -9.77546
ltibia 8.30441
lfoot -8.08496 12.9718
ltoes -8.33521
2
root -13.329 17.9776 -1.7966 146.712 -82.8932 -149.613
lowerback 13.8616 -1.53869 1.11527
upperback 4.04756 -2.01501 1.74514
thorax -3.47215 -1.09371 1.53425
lowerneck -1.5617 -8.14843 -0.589979
upperneck -4.08089 -10.9791 -0.966959
head -1.02027 -5.49886 -0.148814
rclavicle 3.50482e-014 -1.48095e-014
rhumerus -28.0431 18.73 -83.2913
rradius 51.7195
rwrist 15.0084
rhand -0.800897 -14.0306
rfingers 7.12502
rthumb 24.823 -42.4393
lclavicle 3.50482e-014 -1.48095e-014
lhumerus -33.2618 -12.8401 83.3236
lradius 55.3091
lwrist -6.2259
lhand 14.2539 10.388
lfingers 7.12502
lthumb 39.1489 35.8652
rfemur 1.60753 5.81386 17.9552
rtibia 10.17
rfoot -6.72915 -20.2202
rtoes -0.806325
lfemur 4.15618 -4.06641 -9.78748
ltibia 8.62799
lfoot -8.16222 12.9776
ltoes -8.30346
3
root -13.3157 17.9779 -1.79332 147.21 -82.9589 -150.006
lowerback 13.913 -1.4837 1.14349
upperback 3.99208 -1.93381 1.72856
thorax -3.5611 -1.05198 1.49061
lowerneck -1.59138 -7.60414 -0.676661
upperneck -4.38075 -10.2657 -1.04765
head -1.10631 -5.14067 -0.156291
rclavicle -1.44554e-014 1.34677e-014
rhumerus -27.8965 19.1992 -83.1237
rradius 52.283
rwrist 15.9189
rhand -2.23976 -13.4204
rfingers 7.12502
rthumb 23.4434 -42.0122
lclavicle -1.44554e-014 1.34677e-014
lhumerus -32.8301 -13.5939 83.1197
lradius 55.8752
lwrist -6.60135
lhand 14.4573 9.02284
lfingers 7.12502
lthumb 39.3406 34.4445
rfemur 1.22953 5.49782 17.8238
rtibia 10.6592
rfoot -7.16932 -20.0139
rtoes -0.710044
lfemur 3.71017 -4.07599 -9.85097
ltibia 9.15404
lfoot -8.39994 12.9903
ltoes -8.04435
4
root -13.3028 17.9705 -1.78897 147.929 -83.091 -150.628
lowerback 13.9668 -1.42901 1.17399
upperback 3.94165 -1.85376 1.68211
thorax -3.64699 -1.01075 1.41435
lowerneck -1.59192 -7.13098 -0.971143
upperneck -4.73649 -9.63934 -0.90229
head -1.19304 -4.82486 -0.0622227
rclavicle -1.78782e-014 1.5207e-014
rhumerus -27.704 19.6282 -82.9105
rradius 52.8806
rwrist 16.9743
rhand -4.11074 -12.651
rfingers 7.12502
rthumb 21.6476 -41.4609
lclavicle -1.78782e-014 1.5207e-014
lhumerus -32.3074 -14.4183 82.9184
lradius 56.3635
lwrist -6.74321
lhand 13.7275 7.41169
lfingers 7.12502
lthumb 38.6525 33.0304
rfemur 0.860441 5.27857 17.632
rtibia 11.2254
rfoot -7.80803 -20.0202
rtoes -0.00695076
lfemur 3.31396 -4.12785 -9.98075
ltibia 9.57052
lfoot -8.53556 13.014
ltoes -8.0383
5
root -13.288 17.9668 -1.78507 148.317 -83.1746 -150.913
lowerback 14.0186 -1.39486 1.21075
upperback 3.90859 -1.80087 1.65729
thorax -3.71242 -0.983739 1.36115
lowerneck -1.49817 -6.77479 -1.76064
upperneck -5.13329 -9.14745 -0.256849
head -1.26439 -4.57329 0.263904
rclavicle 1.52816e-014 1.40143e-014
rhumerus -27.3739 20.2442 -82.6905
rradius 53.435
rwrist 18.0008
rhand -6.3784 -11.6775
rfingers 7.12502
rthumb 19.4686 -40.7228
lclavicle 1.52816e-014 1.40143e-014
lhumerus -31.8049 -15.1409 82.6241
lradius 57.0368
lwrist -7.08312
lhand 12.6062 5.77338
lfingers 7.12502
lthumb 37.5938 31.682
rfemur 0.440265 4.78512 17.4819
rtibia 11.8858
rfoot -8.37755 -19.9568
rtoes 0.832958
lfemur 2.92983 -4.16203 -10.0407
ltibia 9.93419
lfoot -8.60076 13.0566
ltoes -8.20649
6
root -13.2732 17.9661 -1.78072 148.844 -83.3186 -151.34
lowerback 14.0662 -1.36485 1.22993
upperback 3.88463 -1.75687 1.61926
thorax -3.76573 -0.961159 1.30507
lowerneck -2.7739 -5.08659 2.73717
upperneck -4.67737 -7.13382 -4.9082
head -1.28913 -3.61076 -1.97067
rclavicle 2.34193e-014 -1.37658e-014
rhumerus -27.016 20.7138 -82.4038
rradius 54.1214
rwrist 19.058
rhand -8.58119 -10.7826
rfingers 7.12502
rthumb 17.3496 -40.0283
lclavicle 2.34193e-014 -1.37658e-014
lhumerus -31.1144 -15.9193 82.3114
lradius 57.524
lwrist -7.21532
lhand 11.1309 4.22001
lfingers 7.12502
lthumb 36.1982 30.4876
rfemur -0.0490778 4.19252 17.3034
rtibia 12.5963
rfoot -8.55461 -20.1508
rtoes 0.52909
lfemur 2.5408 -4.2398 -10.1441
ltibia 10.297
lfoot -8.7384 13.054
ltoes -8.04826
7
root -13.2581 17.965 -1.77722 149.705 -83.4617 -152.101
lowerback 14.1067 -1.32412 1.22241
upperback 3.87407 -1.7041 1.56267
thorax -3.80098 -0.934304 1.24249
lowerneck -3.07456 -4.33586 3.30512
upperneck -4.78074 -6.18674 -5.64821
head -1.27941 -3.14814 -2.32988
rclavicle -1.45237e-014 2.32578e-014
rhumerus -26.5273 21.2238 -82.0844
rradius 54.7904
rwrist 19.9274
rhand -10.8389 -9.99923
rfingers 7.12502
rthumb 15.1757 -39.4227
lclavicle -1.45237e-014 2.32578e-014
lhumerus -30.3526 -16.6983 81.8842
lradius 58.127
lwrist -7.17298
lhand 9.41952 2.87065
lfingers 7.12502
lthumb 34.5756 29.5248
rfemur -0.537022 3.7332 17.0837
rtibia 13.39
rfoot -9.08269 -20.3597
rtoes 1.07257
lfemur 2.18139 -3.93015 -10.2595
ltibia 10.5897
lfoot -8.85099 12.7189
ltoes -8.01979
